<svg version="1.1" xmlns="http://www.w3.org/2000/svg" xmlns:xlink="http://www.w3.org/1999/xlink" width="789.89623" height="800.00209" viewBox="0,0,789.89623,800.00209"><g transform="translate(154.94813,220.00104)"><g data-paper-data="{&quot;isPaintingLayer&quot;:true}" fill="#ffffff" fill-rule="nonzero" stroke="#000000" stroke-width="0" stroke-linecap="butt" stroke-linejoin="miter" stroke-miterlimit="10" stroke-dasharray="" stroke-dashoffset="0" style="mix-blend-mode: normal"><path d="M-139.90438,277.76668l58.09063,-8.44844c3.63906,-0.27812 6.775,-2.56562 8.16875,-5.9375l18.83438,-45.44687c1.40781,-3.35938 0.82187,-7.20781 -1.5625,-9.96719l-34.75469,-46.6875c-5.52031,-6.47031 -5.15781,-16.11562 0.86563,-22.1375l27.50312,-27.49062c6.00938,-6.02187 15.67031,-6.4125 22.12344,-0.86406l46.70156,34.73906c2.74688,2.37187 6.62188,2.98437 9.96875,1.59062l45.45938,-18.84688c3.36094,-1.37969 5.65938,-4.57187 5.95313,-8.16875l8.42031,-58.07656c0.66875,-8.50313 7.75,-15.05469 16.25312,-15.05469h38.89531c8.51562,0 15.59843,6.55157 16.25312,15.05469l8.44844,58.07656c0.26563,3.625 2.56562,6.78906 5.925,8.16875l45.47344,18.84688c3.36094,1.39375 7.20781,0.78125 9.98125,-1.59063l46.675,-34.73906c6.45313,-5.53438 16.1,-5.15938 22.13594,0.86406l27.49062,27.49063c6.02188,6.02188 6.38438,15.66875 0.86563,22.1375l-34.74063,46.7c-2.35625,2.74688 -2.98437,6.60782 -1.57656,9.95469l18.83437,45.44688c1.36563,3.37343 4.54375,5.65937 8.15469,5.95312l58.11719,8.43438c8.47656,0.67031 15.02812,7.75156 15.02812,16.26875v38.87969c0,8.50313 -6.55312,15.61406 -15.02812,16.25469l-58.11719,8.43438c-3.61094,0.29374 -6.78906,2.59218 -8.15469,5.95312l-18.83437,45.44687c-1.40782,3.37344 -0.78125,7.23438 1.57656,9.98125l34.74063,46.70156c5.52031,6.46875 5.15781,16.08594 -0.86563,22.1375l-27.49062,27.49063c-6.03594,6.02188 -15.68282,6.38438 -22.13594,0.85l-46.675,-34.75469c-2.77344,-2.34063 -6.62031,-2.96875 -9.98125,-1.55938l-45.47344,18.81875c-3.36094,1.40937 -5.65938,4.55937 -5.94063,8.19687l-8.43438,58.07656c-0.66875,8.48906 -7.7375,15.05625 -16.25312,15.05625h-38.89531c-8.51718,0 -15.58437,-6.56719 -16.25312,-15.05625l-8.42031,-58.07656c-0.29375,-3.63749 -2.59218,-6.7875 -5.95312,-8.19687l-45.47344,-18.81875c-3.34688,-1.40937 -7.22188,-0.78125 -9.96719,1.55938l-46.68906,34.75469c-6.45313,5.53437 -16.11563,5.17187 -22.12344,-0.85l-27.50312,-27.49063c-6.03751,-6.05156 -6.38594,-15.66875 -0.86563,-22.1375l34.75469,-46.70156c2.34219,-2.74687 2.96875,-6.60781 1.5625,-9.98125l-18.83438,-45.44687c-1.39375,-3.36094 -4.52969,-5.65938 -8.16875,-5.95313l-58.09063,-8.43438c-8.49063,-0.64063 -15.04219,-7.75157 -15.04219,-16.25469v-38.87969c0.00156,-8.51875 6.55313,-15.6 15.04375,-16.27031zM47.6675,377.38699c17.07813,17.04999 39.75782,26.44687 63.90313,26.44687c24.13125,0 46.84063,-9.39687 63.90313,-26.44687c17.0625,-17.09063 26.47344,-39.77188 26.47344,-63.91719c0,-24.13125 -9.40938,-46.82656 -26.47344,-63.89062c-17.0625,-17.09219 -39.77188,-26.45938 -63.90313,-26.45938c-24.14688,0 -46.82657,9.36719 -63.90313,26.45938c-17.0625,17.0625 -26.45938,39.75937 -26.45938,63.89062c0.00001,24.14532 9.39532,46.82657 26.45938,63.91719z" data-paper-data="{&quot;index&quot;:null}"/><path d="M347.26434,173.99325c-6.3,-2.25781 -9.77188,-8.97813 -8.00313,-15.41875l9.21563,-45.08438c0.7375,-2.76094 -0.1125,-5.70156 -2.21719,-7.625l-28.53594,-25.97031c-2.09062,-1.90938 -5.13124,-2.48125 -7.76562,-1.47813l-43.68906,13.22813c-6.23282,2.35626 -13.25782,-0.45937 -16.10313,-6.50937l-12.96406,-27.5875c-2.87031,-6.06406 -0.57187,-13.25782 5.22813,-16.54844l38.02969,-25.21875c2.46875,-1.42187 3.96094,-4.1125 3.80625,-6.95625l-1.8125,-38.53125c-0.15312,-2.85782 -1.85312,-5.38125 -4.43437,-6.55313l-40.6375,-21.67812c-6.09063,-2.71875 -9.03281,-9.71563 -6.775,-15.96094l10.31719,-28.70469c2.27187,-6.2875 8.99219,-9.77187 15.43125,-8.00156l45.09844,9.18594c2.76094,0.78125 5.675,-0.08282 7.61094,-2.20313l25.95938,-28.51875c1.9375,-2.12032 2.52188,-5.10157 1.49219,-7.77813l-13.23125,-43.6625c-2.35469,-6.25937 0.45938,-13.27187 6.52344,-16.10312l27.575,-12.97813c6.05,-2.84531 13.27187,-0.57187 16.575,5.24063l25.20469,38.03125c1.40937,2.46875 4.09844,3.95781 6.94375,3.82031l38.53125,-1.82656c2.84375,-0.125 5.40938,-1.88281 6.56563,-4.44844l21.65,-40.62187c2.74687,-6.09062 9.71718,-9.03438 15.99062,-6.775l28.68906,10.32969c6.2875,2.25938 9.77188,8.96563 7.9875,15.40469l-9.2,45.1125c-0.75312,2.73125 0.09688,5.6875 2.21563,7.59687l28.5375,25.98438c2.11875,1.90938 5.11563,2.49531 7.79219,1.49219l43.6625,-13.24375c6.23125,-2.36875 13.24375,0.475 16.10156,6.52344l12.96563,27.57656c2.84374,6.05 0.57187,13.27188 -5.22813,16.56094l-38.02969,25.21875c-2.48125,1.40938 -3.95937,4.08594 -3.80625,6.92969l1.8125,38.53125c0.11093,2.87187 1.85468,5.38125 4.43281,6.55156l40.6375,21.67656c6.09375,2.73281 9.03437,9.71719 6.775,15.9625l-10.32969,28.70312c-2.25781,6.2875 -8.97813,9.77188 -15.40469,8.01719l-45.12656,-9.22813c-2.73281,-0.75312 -5.6875,0.11094 -7.59687,2.22969l-25.95625,28.52344c-1.9375,2.11875 -2.49687,5.12969 -1.49062,7.79219l13.22813,43.6625c2.34219,6.24531 -0.475,13.25781 -6.52344,16.10156l-27.575,12.96406c-6.06406,2.85782 -13.27031,0.55782 -16.575,-5.22812l-25.19063,-38.04375c-1.42187,-2.45313 -4.09844,-3.95937 -6.95625,-3.79375l-38.53281,1.8125c-2.85781,0.14062 -5.39531,1.84062 -6.57969,4.44687l-21.63594,40.60781c-2.76093,6.09375 -9.71718,9.0625 -15.98906,6.80312zM368.27218,12.70419c8.08594,17.11719 22.32031,30.08125 40.12031,36.50781c17.80313,6.39844 37.05312,5.50625 54.1875,-2.55156c17.13282,-8.05782 30.07032,-22.30469 36.49688,-40.12188c6.39844,-17.81563 5.50625,-37.05313 -2.55312,-54.17188c-8.05625,-17.14687 -22.31719,-30.08437 -40.12031,-36.49531c-17.81563,-6.41407 -37.05313,-5.52188 -54.17188,2.56406c-17.11875,8.02969 -30.08438,22.27813 -36.50938,40.09375c-6.4,17.81719 -5.49375,37.04062 2.55,54.175z" data-paper-data="{&quot;index&quot;:null}"/></g></g></svg>