<svg version="1.1" xmlns="http://www.w3.org/2000/svg" xmlns:xlink="http://www.w3.org/1999/xlink" width="292.31231" height="292.31307" viewBox="0,0,292.31231,292.31307"><g transform="translate(-93.84384,-33.84347)"><g data-paper-data="{&quot;isPaintingLayer&quot;:true}" fill="#ffffff" fill-rule="nonzero" stroke="none" stroke-width="1" stroke-linecap="butt" stroke-linejoin="miter" stroke-miterlimit="10" stroke-dasharray="" stroke-dashoffset="0" style="mix-blend-mode: normal"><path d="M314.05878,37.81263c6.3271,-2.62043 13.10729,-3.96916 19.9547,-3.96916c6.84742,0 13.6276,1.34873 19.9547,3.96916c6.32564,2.62043 12.07396,6.46127 16.91611,11.30313c4.84215,4.84186 8.68314,10.59004 11.30372,16.91641c2.61912,6.32622 3.96814,13.1067 3.96814,19.95412c0,6.84742 -1.34902,13.62789 -3.96814,19.95426c-2.62058,6.32622 -6.46156,12.0744 -11.30372,16.91626l-7.57381,7.57323l-73.74017,-73.74119l7.57235,-7.57308c4.84215,-4.84186 10.59048,-8.6827 16.91611,-11.30313z"/><path d="M342.64108,151.10017l-150.87321,150.87263c-1.79845,1.79918 -4.03523,3.09705 -6.48919,3.76644l-72.97329,19.90209c-5.06007,1.37971 -10.47165,-0.057 -14.18037,-3.76644c-3.70871,-3.70798 -5.14587,-9.12014 -3.76586,-14.18007l19.90179,-72.97285c0.66925,-2.45396 1.96726,-4.69161 3.76586,-6.48933l150.87409,-150.87409z"/></g></g></svg>